<?xml version="1.0" encoding="UTF-8"?>
<svg version="1.1" xmlns="http://www.w3.org/2000/svg" width="240" height="206">
<path d="M0 0 C79.2 0 158.4 0 240 0 C240 67.98 240 135.96 240 206 C160.8 206 81.6 206 0 206 C0 138.02 0 70.04 0 0 Z " fill="#171717" transform="translate(0,0)"/>
<path d="M0 0 C5.13609787 3.94090528 8.35686161 8.65031887 9.3671875 15.09765625 C9.75881981 23.24613496 7.00229114 29.48197218 1.92578125 35.7421875 C-2.4454285 40.48561816 -7.69964761 44.06786336 -13.01171875 47.6796875 C-11.43702102 51.95963517 -8.1788021 54.37416269 -4.76171875 57.1796875 C-4.20097656 57.65277344 -3.64023438 58.12585938 -3.0625 58.61328125 C-0.34826116 60.87619169 2.37703449 62.98190733 5.34765625 64.8984375 C7.98828125 66.6796875 7.98828125 66.6796875 8.98828125 68.6796875 C9.36328125 71.6171875 9.36328125 71.6171875 8.98828125 74.6796875 C6.11940547 77.54856328 3.15049496 77.96796691 -0.76171875 78.2421875 C-10.43861397 77.85795784 -17.3104288 69.88472282 -24.13964844 63.73144531 C-24.99864746 62.96912598 -24.99864746 62.96912598 -25.875 62.19140625 C-26.38329346 61.73209717 -26.89158691 61.27278809 -27.4152832 60.79956055 C-29.24785299 59.51404325 -30.82732711 59.09504415 -33.01171875 58.6796875 C-33.00011719 59.45570312 -32.98851563 60.23171875 -32.9765625 61.03125 C-32.77834879 84.76026256 -32.77834879 84.76026256 -35.82421875 89.5546875 C-40.02287006 92.35378837 -43.2130271 92.36014642 -48.171875 92.37890625 C-51.01171875 91.6796875 -51.01171875 91.6796875 -53.359375 89.6640625 C-55.49197964 85.81226595 -55.53193822 82.52457857 -55.38671875 78.2421875 C-55.36629517 77.04021729 -55.36629517 77.04021729 -55.34545898 75.81396484 C-55.19158632 69.94106053 -54.48095196 64.25654403 -53.51953125 58.4609375 C-52.77496701 52.9167976 -52.56513719 47.36837334 -52.35375977 41.78173828 C-52.20504932 38.003055 -52.00182601 34.28445693 -51.49609375 30.53515625 C-51.02393561 26.77692973 -50.8449056 23.15288131 -50.82421875 19.3671875 C-50.81003906 18.17480469 -50.79585937 16.98242188 -50.78125 15.75390625 C-50.77163381 12.50795763 -50.77163381 12.50795763 -53.01171875 9.6796875 C-53.26171875 6.8671875 -53.26171875 6.8671875 -52.01171875 3.6796875 C-38.73085286 -7.75124489 -14.59297661 -9.5775264 0 0 Z " fill="#EAE0EB" transform="translate(84.01171875,45.3203125)"/>
<path d="M0 0 C8.15030413 -0.50939401 15.60083884 2.49841953 22.18359375 7.203125 C24.36142559 9.16060286 25.76518848 10.84565242 27.25 13.34765625 C27.65734375 14.01925781 28.0646875 14.69085938 28.484375 15.3828125 C31.90421104 21.78842848 31.35863562 30.13701795 29.921875 37.078125 C27.74165045 43.31158518 23.94941307 47.42204829 19.23046875 51.9609375 C17.25235299 54.13380812 17.25235299 54.13380812 17.50390625 56.765625 C20.47990976 64.2931633 27.72945177 71.68766747 34.3125 76.22265625 C36.5 78.28515625 36.5 78.28515625 37 81.34765625 C36.5 84.28515625 36.5 84.28515625 35.1875 86.09765625 C30.85639352 89.14547192 25.54847809 89.14494073 20.5 88.28515625 C11.93257343 83.97998864 5.70109622 75.08680058 0.5 67.28515625 C0.48541748 67.86483154 0.47083496 68.44450684 0.45581055 69.04174805 C0.38101472 71.68603178 0.28446102 74.32909627 0.1875 76.97265625 C0.16494141 77.88466797 0.14238281 78.79667969 0.11914062 79.73632812 C-0.07767484 84.65671484 -0.22722968 88.34383902 -3.5 92.28515625 C-6.83397306 94.50780496 -8.09514891 94.58191088 -12 94.59765625 C-12.9590625 94.61441406 -13.918125 94.63117188 -14.90625 94.6484375 C-17.5 94.28515625 -17.5 94.28515625 -19.28125 92.953125 C-22.14959847 89.02753271 -21.72000466 84.53180429 -21.81640625 79.88671875 C-21.83764053 79.0360231 -21.85887482 78.18532745 -21.88075256 77.30885315 C-22.06625796 69.6013933 -22.19970598 61.89259284 -22.3269043 54.18397522 C-22.42504741 48.46676093 -22.57618762 42.75521611 -22.78715515 37.04107666 C-22.90549209 33.65285763 -22.98725266 30.26439654 -23.0607605 26.87493896 C-23.10334793 25.28235096 -23.16170836 23.69010127 -23.23635864 22.09869385 C-23.79570156 9.87713987 -23.79570156 9.87713987 -20.64331055 6.00390625 C-14.25234213 1.51723994 -7.54527509 0.86063294 0 0 Z " fill="#EAE0EB" transform="translate(135.5,36.71484375)"/>
<path d="M0 0 C2.36293002 1.15632746 4.14983755 2.14983755 6 4 C6.14429465 5.81850747 6.22009975 7.64249137 6.26879883 9.46606445 C6.30165482 10.63430252 6.3345108 11.80254059 6.36836243 13.00617981 C6.39762314 14.27902328 6.42688385 15.55186676 6.45703125 16.86328125 C6.48729904 18.16194626 6.51756683 19.46061127 6.54875183 20.79862976 C6.61084239 23.55342403 6.66774088 26.30828179 6.72241211 29.06323242 C6.79383576 32.59119532 6.88882533 36.11811132 6.98918629 39.64535236 C7.07935969 43.0093374 7.14115315 46.37373411 7.20703125 49.73828125 C7.24641312 51.00505203 7.28579498 52.27182281 7.32637024 53.57698059 C7.34346542 54.75467514 7.36056061 55.93236969 7.37817383 57.14575195 C7.41362053 58.70009697 7.41362053 58.70009697 7.44978333 60.2858429 C6.87882546 63.73121149 5.72147056 64.88200846 3 67 C-1.74711299 67.9494226 -6.42665616 67.93651419 -10.625 65.4375 C-15.50963755 56.7783698 -13.30229693 43.05502317 -13.35009766 33.47485352 C-13.36673639 31.0278172 -13.3941286 28.58083101 -13.43212891 26.1340332 C-13.48671587 22.59561113 -13.50873421 19.05831674 -13.5234375 15.51953125 C-13.54610687 14.42469925 -13.56877625 13.32986725 -13.59213257 12.20185852 C-13.57096221 4.63869367 -13.57096221 4.63869367 -10.59619141 1.31103516 C-6.86588912 -0.57270786 -4.07987056 -0.708826 0 0 Z " fill="#EBE1EC" transform="translate(205,41)"/>
<path d="M0 0 C4.06076352 0.04937099 7.06759205 0.255053 10.8203125 1.90625 C13.30212271 5.38078429 13.34333072 7.87142299 13.109375 12.0703125 C12.01384591 18.58147593 6.80020399 22.81453076 1.6953125 26.53125 C-1.42588109 28.38910333 -2.4515573 28.53125 -6.3046875 28.53125 C-6.22378044 24.61373932 -6.11093818 20.69778184 -5.9921875 16.78125 C-5.96962891 15.67007813 -5.94707031 14.55890625 -5.92382812 13.4140625 C-5.88837891 12.34414062 -5.85292969 11.27421875 -5.81640625 10.171875 C-5.79022217 9.18735352 -5.76403809 8.20283203 -5.73706055 7.18847656 C-5.11798806 3.38385488 -3.88427754 0.89535889 0 0 Z " fill="#1D1D1D" transform="translate(59.3046875,53.46875)"/>
<path d="M0 0 C4.27765145 0.16142081 6.33316458 0.31561628 9.375 3.4375 C12.77509047 8.79918113 12.70538382 13.73775922 12 20 C10.20360665 24.53409681 7.38334862 28.66221407 3 31 C2.01 31 1.02 31 0 31 C-0.91580814 24.13143892 -1.11028285 17.35701397 -1.125 10.4375 C-1.12951172 9.53225586 -1.13402344 8.62701172 -1.13867188 7.69433594 C-1.13673828 6.84516602 -1.13480469 5.99599609 -1.1328125 5.12109375 C-1.13168457 4.3520874 -1.13055664 3.58308105 -1.12939453 2.79077148 C-1 1 -1 1 0 0 Z " fill="#1D1D1D" transform="translate(134,51)"/>
<path d="M0 0 C2.125 1.625 2.125 1.625 3.125 3.625 C3.328125 5.68359375 3.328125 5.68359375 3.375 8.0625 C3.40078125 8.84496094 3.4265625 9.62742188 3.453125 10.43359375 C3.04462728 13.16177498 2.29227539 13.9691611 0.125 15.625 C-4.90981197 17.30327066 -9.09578357 17.4404742 -13.875 15.25 C-16.53242574 11.76212872 -16.39528533 9.24871798 -16.34375 4.96484375 C-15.79017335 2.20157365 -15.09980532 1.30934554 -12.875 -0.375 C-8.2614754 -1.91284153 -4.43778431 -2.12241859 0 0 Z " fill="#E8DFE9" transform="translate(209.875,124.375)"/>
</svg>
