<?xml version="1.0" encoding="UTF-8"?>
<svg version="1.1" xmlns="http://www.w3.org/2000/svg" width="224" height="189">
<path d="M0 0 C73.92 0 147.84 0 224 0 C224 62.37 224 124.74 224 189 C150.08 189 76.16 189 0 189 C0 126.63 0 64.26 0 0 Z " fill="#181818" transform="translate(0,0)"/>
<path d="M0 0 C4.23381199 3.938208 6.72293061 8.22210952 7.30078125 14.015625 C7.34371721 25.86595018 5.04793607 33.18559383 -3 42 C-14.04988662 53 -14.04988662 53 -20 53 C-17.23005464 63.01441785 -7.24028896 68.45187716 1.125 73.7109375 C3.86686622 75.59597052 5.69286385 76.86215334 6.58203125 80.15625 C6.65808594 80.9296875 6.73414062 81.703125 6.8125 82.5 C6.90144531 83.2734375 6.99039063 84.046875 7.08203125 84.84375 C7 87 7 87 5 90 C0.87436535 92.30550172 -3.37659325 92.67890173 -8 92 C-18.35409291 88.58274009 -26.74376648 79.60604759 -34.69140625 72.484375 C-37.43724393 70.08950905 -39.44153427 68.71473457 -43 68 C-42.98839844 68.969375 -42.97679688 69.93875 -42.96484375 70.9375 C-42.88652735 80.66831329 -43.27743975 90.2970481 -44 100 C-44.66 100 -45.32 100 -46 100 C-46.103125 100.5775 -46.20625 101.155 -46.3125 101.75 C-47.13784234 104.45112038 -48.06751264 105.93249169 -50 108 C-55.53532105 109.51200293 -61.89135173 109.80975655 -67 107 C-69.6982139 103.3309278 -70.36545917 100.78028853 -70.29296875 96.26171875 C-70.28330078 95.19501953 -70.27363281 94.12832031 -70.26367188 93.02929688 C-70.23853516 91.92650391 -70.21339844 90.82371094 -70.1875 89.6875 C-70.17396484 88.56537109 -70.16042969 87.44324219 -70.14648438 86.28710938 C-70.1112138 83.52424771 -70.06192235 80.76237171 -70 78 C-69.34 78 -68.68 78 -68 78 C-67.56845482 70.36880808 -67.14173514 62.73735695 -66.71826172 55.10571289 C-66.57384754 52.51320382 -66.42835639 49.9207545 -66.28173828 47.32836914 C-66.07036047 43.587557 -65.86294381 39.84654228 -65.65625 36.10546875 C-65.59062866 34.95918503 -65.52500732 33.81290131 -65.45739746 32.63188171 C-65.17068571 27.37946569 -64.93191461 22.12800598 -64.83398438 16.8684082 C-64.81670288 16.00053177 -64.79942139 15.13265533 -64.78161621 14.23847961 C-64.85041862 11.71380929 -64.85041862 11.71380929 -67 9 C-67.625 5.6875 -67.625 5.6875 -67 2 C-62.02097109 -4.00328629 -54.22366511 -5.99128029 -47 -8 C-46.28328125 -8.226875 -45.5665625 -8.45375 -44.828125 -8.6875 C-28.78527757 -13.1645737 -13.09554822 -9.90614857 0 0 Z " fill="#F9F9F9" transform="translate(96,42)"/>
<path d="M0 0 C3.19668849 2.56941377 5.70526516 5.32136642 8.0703125 8.6640625 C8.48410156 9.21191406 8.89789063 9.75976562 9.32421875 10.32421875 C13.44373089 16.85515262 13.10403307 25.23890091 12.0703125 32.6640625 C9.66262614 41.63909762 4.95729852 49.1078838 -1.8671875 55.3515625 C-2.5478125 56.1146875 -3.2284375 56.8778125 -3.9296875 57.6640625 C-3.67628121 62.061407 -1.74106028 64.66959533 0.8828125 68.1015625 C5.36418174 74.03419366 5.36418174 74.03419366 7.2578125 77.1015625 C9.7350375 80.60384612 12.49065642 82.87423446 16.3203125 84.7890625 C18.0703125 85.6640625 18.0703125 85.6640625 19.0703125 87.6640625 C19.4703259 91.34418583 19.58061147 93.0129914 17.2578125 95.9765625 C12.28129006 99.8155941 6.06312286 99.30614932 0.0703125 98.6640625 C-9.61439487 95.3685718 -16.60821209 84.75154644 -21.640625 76.37890625 C-22.90717182 74.35583917 -22.90717182 74.35583917 -25.9296875 73.6640625 C-25.91397705 74.35967285 -25.8982666 75.0552832 -25.88208008 75.77197266 C-25.81945887 78.94425221 -25.78061073 82.11640135 -25.7421875 85.2890625 C-25.71705078 86.38347656 -25.69191406 87.47789063 -25.66601562 88.60546875 C-25.61278462 94.46087933 -25.62985651 98.72730748 -28.9296875 103.6640625 C-29.5896875 103.6640625 -30.2496875 103.6640625 -30.9296875 103.6640625 C-30.9296875 104.6540625 -30.9296875 105.6440625 -30.9296875 106.6640625 C-35.73288316 107.86486142 -41.22898022 109.17156937 -45.7421875 106.65234375 C-48.42926078 104.50139326 -49.83371434 102.95198199 -50.9296875 99.6640625 C-51.08600116 96.88814758 -51.1882431 94.13372728 -51.24609375 91.35546875 C-51.26710144 90.50121307 -51.28810913 89.6469574 -51.30975342 88.76681519 C-51.37697733 85.92016573 -51.43568478 83.07344418 -51.4921875 80.2265625 C-51.51203705 79.25107452 -51.5318866 78.27558655 -51.55233765 77.27053833 C-51.70182035 69.73537274 -51.8202209 62.19990374 -51.9296875 54.6640625 C-51.94749268 53.4922644 -51.96529785 52.32046631 -51.98364258 51.11315918 C-52.09003047 43.93732044 -52.16953328 36.76190295 -52.21578979 29.5854187 C-52.23336961 27.26530948 -52.25770852 24.9452415 -52.28884888 22.62527466 C-52.33049853 19.36586018 -52.34633335 16.10730248 -52.35546875 12.84765625 C-52.37293152 11.87359833 -52.39039429 10.89954041 -52.40838623 9.89596558 C-52.38722319 3.3044181 -52.38722319 3.3044181 -50.09057617 0.09008789 C-47.9296875 -1.3359375 -47.9296875 -1.3359375 -44.9296875 -2.3359375 C-44.5996875 -2.9959375 -44.2696875 -3.6559375 -43.9296875 -4.3359375 C-29.30322161 -10.10188608 -12.8243356 -9.07087152 0 0 Z " fill="#FAFAFA" transform="translate(179.9296875,36.3359375)"/>
<path d="M0 0 C3 1.625 3 1.625 4 3.625 C4.12240135 5.39270327 4.17551153 7.16560462 4.1875 8.9375 C4.20167969 9.88238281 4.21585938 10.82726563 4.23046875 11.80078125 C3.90305574 15.81297799 3.01495017 18.52547065 0.265625 21.50390625 C-11.09432413 30.99254593 -11.09432413 30.99254593 -19 31.625 C-19.11127079 24.40476199 -19.01335962 17.2098015 -18.625 10 C-18.59414307 9.31357422 -18.56328613 8.62714844 -18.53149414 7.91992188 C-18.31707096 4.34293311 -18.03665873 2.6799881 -16 -0.375 C-10.67672712 -2.14942429 -5.22674744 -2.13821486 0 0 Z " fill="#212121" transform="translate(74,51.375)"/>
<path d="M0 0 C3.79673358 0.29205643 5.36835241 0.75776425 8.25 3.25 C11.86399365 10.10412589 12.55177697 17.79060978 10.74609375 25.36328125 C9.06872265 29.68610619 6.52722677 33.04898781 3.25 36.25 C-0.0625 37.125 -0.0625 37.125 -2.75 37.25 C-3.63830581 29.19049647 -3.90360516 21.229795 -3.875 13.125 C-3.87886719 11.990625 -3.88273438 10.85625 -3.88671875 9.6875 C-3.88542969 8.61242187 -3.88414062 7.53734375 -3.8828125 6.4296875 C-3.88168457 5.45757324 -3.88055664 4.48545898 -3.87939453 3.48388672 C-3.68746682 0.17041778 -3.34550899 0.30413718 0 0 Z " fill="#1D1D1D" transform="translate(155.75,45.75)"/>
</svg>
